<svg xmlns="http://www.w3.org/2000/svg" xmlns:xlink="http://www.w3.org/1999/xlink" width="160" height="57" viewBox="0 0 160 57">
  <defs>
    <linearGradient id="linear-gradient" x1="1.319" y1="0.198" x2="0.5" y2="1" gradientUnits="objectBoundingBox">
      <stop offset="0" stop-color="#87fef6"/>
      <stop offset="1" stop-color="#0093fa"/>
    </linearGradient>
    <clipPath id="clip-path">
      <rect id="長方形_8" data-name="長方形 8" width="160" height="57" fill="url(#linear-gradient)"/>
    </clipPath>
  </defs>
  <g id="グループ_10" data-name="グループ 10" clip-path="url(#clip-path)">
    <path id="パス_13" data-name="パス 13" d="M38.62,43a3.455,3.455,0,0,0-.826-2.326,2.945,2.945,0,0,0-2.415-.969.893.893,0,0,0-.254.129s-.064.129.191.259a.78.78,0,0,1,.381.84,10.492,10.492,0,0,1-.763,3.23c-1.208,3.424-5.085,8.528-6.547,9.95,0,0-3.178,3.1-4.64,2.907,0,0-.445,0-.509-.194a4.572,4.572,0,0,1-.185-1.838,31.268,31.268,0,0,0,2.982-4.041,14.421,14.421,0,0,0,1.843-5.362,3.616,3.616,0,0,0-.028-.722c1.666-1.95,5.074-5.489,8.482-6.32a.416.416,0,0,1,.445.194.734.734,0,0,0,.7.194.6.6,0,0,0,.381-.776,6.756,6.756,0,0,0-1.4-2.39,3.382,3.382,0,0,0-2.352-1.034,6.7,6.7,0,0,0-3.115.9A13.806,13.806,0,0,0,28.7,37.058a31.572,31.572,0,0,0-3.877,3.812,19.959,19.959,0,0,0-2.543,3.618,21.354,21.354,0,0,0-1.97,4.781,17.109,17.109,0,0,0-.51,2.975c-2.948,2.367-7.937,5.814-12.139,5.941,0,0-2.733.323-4-1.486,0,0-2.8-4.458,4.513-15.248,0,0,9.153-13.18,19.9-14.731,0,0,.191-.065.064.129,0,0-1.653,1.422-5.975,7.43,0,0-.508.581-.254.775,0,0,.191.323.509,0l.508-.517a57.149,57.149,0,0,1,8.454-5.815s1.208-.84.763-1.55a7.3,7.3,0,0,0-.763-1.55,1.729,1.729,0,0,0-.127-.84,12.907,12.907,0,0,0-2.225-3.295s-1.08-1.357-1.907-.969c0,0-4.7.065-12.522,6.009,0,0-15.446,11.694-14.556,24.874,0,0,.063,4.264,2.924,6.59a8.506,8.506,0,0,0,8.2,3.941s4.751-.119,10-4.987a3.93,3.93,0,0,0,1.506,1.111,2.8,2.8,0,0,0,1.971.84s5.848.581,11.7-8.981c0,0,2.67-4.2,2.288-6.913" transform="translate(0 -13.986)" fill="url(#linear-gradient)"/>
    <path id="パス_14" data-name="パス 14" d="M166.949,42.127s-.318-.129-.763.388c-1.525,1.68-3.814,4.587-5.021,5.621,0,0-2.8,2.649-5.339,4.716,0,0-2.8,2.132-4.131,2,0,0-1.653-.194-1.526-3.166a13.111,13.111,0,0,1,.318-1.68,14.718,14.718,0,0,1,.954-2.52,21.19,21.19,0,0,1,2.288-3.682s1.525,1.809,2.8,2c0,0,2.352.259,5.53-3.295A13.443,13.443,0,0,0,164.66,38.7s.318-.9-.127-1.357c0,0-.191-.323-.381-.388a1.112,1.112,0,0,0-.191-.259,10.556,10.556,0,0,0-3.242-3.876s-.445-.323-.636-.259a22.937,22.937,0,0,0-10.453,8.668.22.22,0,0,0-.1-.075s-.318-.194-.7.259L145.91,44.97a73.506,73.506,0,0,1-8.644,9.11,1.03,1.03,0,0,1-.382.194s.127-2.972,3.623-8.593c.318-.388,3.687-5.556,5.848-8.787,0,0,2.67-3.618,5.149-7.559a40.6,40.6,0,0,0,2.8-4.393,4.762,4.762,0,0,0,.508-2.132,4.714,4.714,0,0,0-1.716-3.295,10.087,10.087,0,0,0-2.86-2s-.381-.129-.445.064c0,0-.127.129-.063.258a2.841,2.841,0,0,1,.191,1.616s.063,2.132-2.543,6.461c0,0-.381.9-6.42,10.725l-.445.581a1.034,1.034,0,0,0-.318-.646l-.318-.323a4.532,4.532,0,0,0-1.589-2.649,8.574,8.574,0,0,0-1.335-1.1.857.857,0,0,0-1.017-.129l-.89.388a11.745,11.745,0,0,0-2.034.969,21.48,21.48,0,0,0-6.484,5.815,28.739,28.739,0,0,0-3.305,5.686s-2.67,6.849,0,9.239a14.173,14.173,0,0,0,3.178,2.326,4.8,4.8,0,0,0,1.017.323.856.856,0,0,0,.7-.452l1.08-1.744s1.335-2.2,5.594-8.335l.127.129-.127.194a9.741,9.741,0,0,0-1.081,2.713s-.89,3.553.445,4.587a10.615,10.615,0,0,0,2.161,2.2s.89.775,1.4.71a2.012,2.012,0,0,0,1.653-.646,34.224,34.224,0,0,0,2.543-3.553s.72-.957,6.319-9.24a14.584,14.584,0,0,0-1.616,6.4,5.042,5.042,0,0,0,1.462,3.618,16.314,16.314,0,0,0,2.288,1.938,7.614,7.614,0,0,0,3.687,1.486,3.293,3.293,0,0,0,1.716-.517,32.743,32.743,0,0,0,4.64-4.781c3.178-3.876,6.293-8.528,6.547-8.916.381-.646,0-.775,0-.775m-4.958-4.264a17.184,17.184,0,0,1-4.449,5.169c-2.479,1.551-3.433.388-3.433.388,2.67-3.941,7.882-5.556,7.882-5.556m-25.742,4.523a128.285,128.285,0,0,1-10.615,11.759s-.127.129-.127,0c0,0-.7-2.455,2.225-8.076,0,0,3.814-7.495,11.378-9.433a3.652,3.652,0,0,1-.064,1.1,19.472,19.472,0,0,1-2.8,4.652" transform="translate(-84.089 -11.948)" fill="url(#linear-gradient)"/>
    <path id="パス_15" data-name="パス 15" d="M320.529,27.02s.636-3.424-.826-4.846a11.047,11.047,0,0,0-2.225-1.55,1.229,1.229,0,0,0-1.589-.064,52.6,52.6,0,0,0-5.721,4.2l1.144-2.067a3.714,3.714,0,0,0,.254-2.132s-.254-1.292-2.352-2.391a7.547,7.547,0,0,1-.763-.388.771.771,0,0,0-.572-.129s-.318.129-.255.259a1.6,1.6,0,0,1,.064.452,7.394,7.394,0,0,1-1.144,3.166s-4.068,6.2-8.9,12.082a.521.521,0,0,0,.063.775.654.654,0,0,0,.763-.065l4.386-5.685.063.064s-.168.34-10.116,15.783a5.9,5.9,0,0,1-.879-4.993s-.838-8.988,13.187-23.449l.212.667c-.026,0-.053,0-.076,0-.311,0-.311,1.917.131,2.2s.8-.8.8-.8l10.29-17.1a.655.655,0,0,0-.863-.927L296.617,10.625l-3.494,1.48a1.109,1.109,0,0,0-.311.632c0,.316,0,.948.622.948s2.487.632,2.8.316a1.81,1.81,0,0,0,.228-.674l3.549.575c-.364.349-.772.733-1.2,1.125l-13.3,14.19S272.921,43.366,270.76,43.172c0,0,2.034-9.691,16.145-25.262,0,0,3.305-3.812,2.988-5.944a4.977,4.977,0,0,0-1.271-3.036A4.913,4.913,0,0,0,284.172,6.8s-8.136.323-24.345,10.208c0,0-1.017.646-.7,1.486a35.038,35.038,0,0,0,2.161,3.682s1.144,1.551,2.034,1.228a10.207,10.207,0,0,0,2.988-1.034s.7-.323.508-.775c0,0-.127-.388-.445-.323h-2.225s11.823-9.562,22.946-11.242a1.678,1.678,0,0,1-.572,1.292,49.687,49.687,0,0,1-4.7,4.458s-9.6,8.528-13.094,15.829c0,0-2.543,4.523-2.288,7.495a7.556,7.556,0,0,0,1.335,3.618,12.8,12.8,0,0,0,2.1,2.713,4.457,4.457,0,0,0,2.988,1.486,4.305,4.305,0,0,0,3.051-1.809s.89-1.228,3.305-4.07l15.827-19.06.127.129a62.017,62.017,0,0,0-4.259,6.525s-3.75,5.75-3.242,9.82c0,0,.338,5.354,4.335,7.274l-1.475,2.288s-2.606,3.424-2.352,5.492a3.363,3.363,0,0,0,.7,1.809,5.3,5.3,0,0,0,1.462,1.292s1.017.581,1.271.323a.588.588,0,0,0,.127-.646s-.191-.969,1.017-2.843A167.026,167.026,0,0,1,301.715,39.3a16.5,16.5,0,0,0,1.907,2.778s1.589,2.067,3.178,2a5.439,5.439,0,0,0,3.115-1.034,20.686,20.686,0,0,0,3.877-3.554,34.443,34.443,0,0,0,4.322-6.4,33.239,33.239,0,0,0,2.415-6.073m-7.055,4.587a30.157,30.157,0,0,1-5.911,7.818c-1.653,1.551-2.733,1.357-2.733,1.357-.7-.129-1.271-1.034-1.271-1.034a3.072,3.072,0,0,1-.826-1.809,76.888,76.888,0,0,1,4.131-6.913c5.53-7.365,9.98-8.528,9.98-8.528-.572,4.07-3.369,9.11-3.369,9.11" transform="translate(-178.518 0)" fill="url(#linear-gradient)"/>
    <path id="パス_16" data-name="パス 16" d="M463.062,62.585a40.114,40.114,0,0,0-3.75-3.1,3.732,3.732,0,0,0-.381-.258.764.764,0,0,0-.826.194c-.191.194-1.589,1.938-3.179,3.876,0,0-2.1,2.455-4.385,5.169l-5.022,6.009L441.2,79.642s-.635.84,0,1.421a.864.864,0,0,0,1.271-.129s.763-.9,6.483-7.495c1.081-1.228,3.051-3.36,4.7-5.169,0,0,1.717-1.809,3.179-3.36l.063.064c-.826,1.68-1.653,3.554-2.352,5.233,0,0-1.017,2.649-1.97,4.716a24.265,24.265,0,0,1-2.1,4.587s-1.462,2.067-2.924,1.938a5.114,5.114,0,0,1-2.351-.711.749.749,0,0,0-.827.064.474.474,0,0,0-.063.646s2.67,3.489,5.4,3.618c0,0,4.45.323,6.484-6.719.509-1.809,1.271-3.618,2.034-5.685a28.638,28.638,0,0,1,5.085-8.012s.508-.452.508-.84a1.468,1.468,0,0,0-.763-1.227" transform="translate(-303.826 -40.475)" fill="url(#linear-gradient)"/>
  </g>
</svg>
